<svg viewBox="0 0 24 24" fill="currentColor" xmlns="http://www.w3.org/2000/svg">
    <path fill-rule="evenodd" clip-rule="evenodd"
        d="M13.7776 4.0393C13.2514 3.68768 12.6327 3.5 11.9998 3.5C11.1511 3.5 10.3372 3.83714 9.73706 4.43726C9.13695 5.03737 8.79981 5.85131 8.79981 6.7C8.79981 7.3329 8.98748 7.95159 9.3391 8.47783C9.69072 9.00406 10.1905 9.41421 10.7752 9.65641C11.3599 9.89861 12.0034 9.96199 12.6241 9.83851C13.2448 9.71504 13.815 9.41027 14.2625 8.96274C14.7101 8.51521 15.0148 7.94503 15.1383 7.32429C15.2618 6.70355 15.1984 6.06014 14.9562 5.47541C14.714 4.89069 14.3039 4.39092 13.7776 4.0393ZM9.38863 2.79209C10.1615 2.27565 11.0702 2 11.9998 2C13.2463 2 14.4418 2.49518 15.3232 3.3766C16.2046 4.25802 16.6998 5.45348 16.6998 6.7C16.6998 7.62957 16.4242 8.53827 15.9077 9.31118C15.3913 10.0841 14.6572 10.6865 13.7984 11.0422C12.9396 11.398 11.9946 11.491 11.0829 11.3097C10.1712 11.1283 9.33371 10.6807 8.67641 10.0234C8.0191 9.3661 7.57147 8.52864 7.39012 7.61692C7.20877 6.70521 7.30184 5.7602 7.65757 4.90139C8.0133 4.04257 8.61572 3.30854 9.38863 2.79209ZM7.3601 22.0699H16.6401C17.0055 22.0712 17.3676 22.0002 17.7055 21.861C18.0434 21.7217 18.3504 21.517 18.6088 21.2586C18.8672 21.0002 19.0719 20.6932 19.2112 20.3553C19.3504 20.0174 19.4214 19.6553 19.4201 19.2899C19.4175 17.5244 18.7149 15.8319 17.4665 14.5835C16.2181 13.3351 14.5256 12.6325 12.7601 12.6299H11.2401C9.47457 12.6325 7.78211 13.3351 6.53369 14.5835C5.28527 15.8319 4.58274 17.5244 4.5801 19.2899C4.57877 19.6553 4.64978 20.0174 4.78902 20.3553C4.92826 20.6932 5.13298 21.0002 5.39139 21.2586C5.6498 21.517 5.95679 21.7217 6.29467 21.861C6.63256 22.0002 6.99465 22.0712 7.3601 22.0699ZM7.59434 15.6441C8.56146 14.677 9.87239 14.1325 11.2401 14.1299H12.7601C14.1278 14.1325 15.4387 14.677 16.4058 15.6441C17.373 16.6112 17.9175 17.9222 17.9201 19.2899C17.9201 19.6294 17.7852 19.9549 17.5452 20.195C17.3051 20.435 16.9796 20.5699 16.6401 20.5699H7.3601C7.02062 20.5699 6.69505 20.435 6.455 20.195C6.21495 19.9549 6.0801 19.6294 6.0801 19.2899C6.08274 17.9222 6.62723 16.6112 7.59434 15.6441Z"
        fill="currentColor">
    </path>
</svg>