<svg width="21" height="21" viewBox="0 0 21 21" fill="none" xmlns="http://www.w3.org/2000/svg">
<path d="M19.2198 8.72989C18.8627 8.30942 18.4183 7.97175 17.9175 7.74034C17.4167 7.50894 16.8715 7.38935 16.3198 7.38989H14.7098C15.4698 4.53989 15.4598 2.66989 14.7098 1.67989C14.4883 1.40488 14.2004 1.19081 13.8732 1.05785C13.5461 0.924884 13.1904 0.877408 12.8398 0.919892C12.3289 0.933435 11.8413 1.13641 11.4717 1.48939C11.1021 1.84238 10.8769 2.32015 10.8398 2.82989C10.3299 5.45187 9.09281 7.87757 7.26984 9.82989C6.90498 9.03826 6.27969 8.39567 5.49831 8.00934C4.71692 7.623 3.82669 7.51628 2.97614 7.70699C2.12558 7.89769 1.36613 8.37428 0.824496 9.05725C0.28286 9.74021 -0.00821186 10.5883 -0.000157706 11.4599V17.1599C-0.00680919 17.6635 0.0869752 18.1633 0.275715 18.6303C0.464455 19.0972 0.744365 19.5218 1.09909 19.8794C1.45381 20.2369 1.87623 20.5201 2.34167 20.7125C2.8071 20.9049 3.30622 21.0026 3.80984 20.9999H3.85984C4.60751 20.9976 5.3378 20.7742 5.95881 20.3578C6.57982 19.9414 7.0638 19.3507 7.34984 18.6599L7.91984 18.9999C8.90073 19.5812 10.0197 19.8885 11.1598 19.8899H15.5298C16.4341 19.8941 17.31 19.5749 17.9995 18.99C18.6891 18.405 19.1467 17.5927 19.2898 16.6999L20.0798 11.8599C20.1765 11.307 20.1496 10.7396 20.0009 10.1984C19.8522 9.65726 19.5854 9.15573 19.2198 8.72989ZM6.13984 17.1599C6.13985 17.7655 5.89995 18.3465 5.47266 18.7756C5.04536 19.2048 4.46545 19.4472 3.85984 19.4499H3.80984C3.20331 19.4473 2.62236 19.2051 2.19348 18.7763C1.76459 18.3474 1.52247 17.7664 1.51984 17.1599V11.4599C1.51984 10.8472 1.76322 10.2597 2.19643 9.82648C2.62963 9.39327 3.21719 9.14989 3.82984 9.14989C4.44249 9.14989 5.03005 9.39327 5.46326 9.82648C5.89647 10.2597 6.13984 10.8472 6.13984 11.4599V17.1599ZM18.5998 11.5699L17.8098 16.3999C17.7259 16.943 17.4493 17.4379 17.0307 17.794C16.6122 18.1502 16.0794 18.3439 15.5298 18.3399H11.1598C10.29 18.3417 9.43616 18.1066 8.68984 17.6599L7.68984 17.0399V11.4399C8.51984 10.8899 11.1198 8.37989 12.3498 3.10989C12.3546 3.06669 12.3546 3.02309 12.3498 2.97989C12.3498 2.90464 12.3649 2.83015 12.3943 2.76087C12.4237 2.69159 12.4667 2.62894 12.5209 2.57667C12.575 2.5244 12.6391 2.48358 12.7094 2.45664C12.7797 2.4297 12.8546 2.4172 12.9298 2.41989C13.3498 2.41989 13.4798 2.54989 13.5298 2.60989C13.7098 2.84989 14.2298 3.91989 13.0698 7.79989C13.009 7.91323 12.9787 8.04047 12.9821 8.16907C12.9854 8.29767 13.0222 8.42318 13.0888 8.53322C13.1554 8.64326 13.2496 8.73403 13.362 8.79658C13.4744 8.85913 13.6012 8.89129 13.7298 8.88989H16.3498C16.6845 8.88992 17.0151 8.96265 17.3189 9.10305C17.6226 9.24346 17.8923 9.44818 18.1091 9.70306C18.3259 9.95794 18.4848 10.2569 18.5747 10.5792C18.6646 10.9016 18.6834 11.2396 18.6298 11.5699H18.5998Z" fill="#202C44"/>
</svg>
