<svg width="7" height="14" viewBox="0 0 7 14" fill="none" xmlns="http://www.w3.org/2000/svg">
<path d="M6.14983 13.2999C6.05129 13.3004 5.95365 13.2812 5.86263 13.2434C5.77162 13.2056 5.68907 13.15 5.61983 13.0799L0.219828 7.67991C0.0793778 7.53928 0.000488281 7.34866 0.000488281 7.14991C0.000488281 6.95116 0.0793778 6.76053 0.219828 6.61991L5.61983 1.21991C5.68849 1.14622 5.77129 1.08712 5.86329 1.04613C5.95529 1.00514 6.0546 0.983095 6.15531 0.981318C6.25601 0.979541 6.35604 0.998066 6.44943 1.03579C6.54281 1.07351 6.62765 1.12965 6.69887 1.20087C6.77009 1.27209 6.82623 1.35692 6.86395 1.45031C6.90167 1.5437 6.9202 1.64373 6.91842 1.74443C6.91664 1.84513 6.8946 1.94445 6.85361 2.03645C6.81262 2.12845 6.75351 2.21125 6.67983 2.27991L1.80983 7.14991L6.67983 11.9999C6.82028 12.1405 6.89917 12.3312 6.89917 12.5299C6.89917 12.7287 6.82028 12.9193 6.67983 13.0599C6.61266 13.1341 6.53095 13.1937 6.43977 13.235C6.3486 13.2763 6.2499 13.2984 6.14983 13.2999Z" fill="#505F79"/>
</svg>
