<svg width="66" height="72" viewBox="0 0 66 72" fill="none" xmlns="http://www.w3.org/2000/svg">
<path d="M31.9571 0C24.3304 0 16.4377 1.20469 11.0281 4.38853C2.2486 9.63755 -0.323176 19.8774 0.0315525 29.3429C0.297599 37.5176 2.51466 46.2947 8.54504 52.3181C14.2207 58.0834 25.9267 60.6649 33.9968 60.6649C34.3515 60.6649 34.7063 60.9231 34.7063 61.3533V69.6141C34.7063 70.3885 35.327 71.0769 36.2139 71.0769C36.3025 71.0769 36.3025 71.0769 36.3912 71.0769C36.7459 71.0769 37.012 70.9048 37.1893 70.7327C41.18 67.3768 45.2594 63.9348 49.1614 60.4928C52.8861 57.1369 57.1428 53.6949 59.9806 49.6506C66.0997 41.1317 67.0752 29.1708 65.0355 19.189C63.0845 9.63755 56.0786 3.35593 46.3236 1.37679C42.1556 0.516296 37.1007 0 31.9571 0Z" fill="#80E3EB"/>
</svg>
