<svg width="24" height="24" viewBox="0 0 24 24" fill="none" xmlns="http://www.w3.org/2000/svg">
<path d="M21.2198 9.72989C20.8627 9.30942 20.4183 8.97175 19.9175 8.74034C19.4167 8.50894 18.8715 8.38935 18.3198 8.38989H16.7098C17.4698 5.53989 17.4598 3.66989 16.7098 2.67989C16.4883 2.40488 16.2004 2.19081 15.8732 2.05785C15.5461 1.92488 15.1904 1.87741 14.8398 1.91989C14.3289 1.93343 13.8413 2.13641 13.4717 2.48939C13.1021 2.84238 12.8769 3.32015 12.8398 3.82989C12.3299 6.45187 11.0928 8.87757 9.26984 10.8299C8.90498 10.0383 8.27969 9.39567 7.49831 9.00934C6.71692 8.623 5.82669 8.51628 4.97614 8.70699C4.12558 8.89769 3.36613 9.37428 2.8245 10.0572C2.28286 10.7402 1.99179 11.5883 1.99984 12.4599V18.1599C1.99319 18.6635 2.08698 19.1633 2.27572 19.6303C2.46446 20.0972 2.74437 20.5218 3.09909 20.8794C3.45381 21.2369 3.87623 21.5201 4.34167 21.7125C4.8071 21.9049 5.30622 22.0026 5.80984 21.9999H5.85984C6.60751 21.9976 7.3378 21.7742 7.95881 21.3578C8.57982 20.9414 9.0638 20.3507 9.34984 19.6599L9.91984 19.9999C10.9007 20.5812 12.0197 20.8885 13.1598 20.8899H17.5298C18.4341 20.8941 19.31 20.5749 19.9995 19.99C20.6891 19.405 21.1467 18.5927 21.2898 17.6999L22.0798 12.8599C22.1765 12.307 22.1496 11.7396 22.0009 11.1984C21.8522 10.6573 21.5854 10.1557 21.2198 9.72989ZM8.13984 18.1599C8.13985 18.7655 7.89995 19.3465 7.47266 19.7756C7.04536 20.2048 6.46545 20.4472 5.85984 20.4499H5.80984C5.20331 20.4473 4.62236 20.2051 4.19348 19.7763C3.76459 19.3474 3.52247 18.7664 3.51984 18.1599V12.4599C3.51984 11.8472 3.76322 11.2597 4.19643 10.8265C4.62963 10.3933 5.21719 10.1499 5.82984 10.1499C6.44249 10.1499 7.03005 10.3933 7.46326 10.8265C7.89647 11.2597 8.13984 11.8472 8.13984 12.4599V18.1599ZM20.5998 12.5699L19.8098 17.3999C19.7259 17.943 19.4493 18.4379 19.0307 18.794C18.6122 19.1502 18.0794 19.3439 17.5298 19.3399H13.1598C12.29 19.3417 11.4362 19.1066 10.6898 18.6599L9.68984 18.0399V12.4399C10.5198 11.8899 13.1198 9.37989 14.3498 4.10989C14.3546 4.06669 14.3546 4.02309 14.3498 3.97989C14.3498 3.90464 14.3649 3.83015 14.3943 3.76087C14.4237 3.69159 14.4667 3.62894 14.5209 3.57667C14.575 3.5244 14.6391 3.48358 14.7094 3.45664C14.7797 3.4297 14.8546 3.4172 14.9298 3.41989C15.3498 3.41989 15.4798 3.54989 15.5298 3.60989C15.7098 3.84989 16.2298 4.91989 15.0698 8.79989C15.009 8.91323 14.9787 9.04047 14.9821 9.16907C14.9854 9.29767 15.0222 9.42318 15.0888 9.53322C15.1554 9.64326 15.2496 9.73403 15.362 9.79658C15.4744 9.85913 15.6012 9.89129 15.7298 9.88989H18.3498C18.6845 9.88992 19.0151 9.96265 19.3189 10.1031C19.6226 10.2435 19.8923 10.4482 20.1091 10.7031C20.3259 10.9579 20.4848 11.2569 20.5747 11.5792C20.6646 11.9016 20.6834 12.2396 20.6298 12.5699H20.5998Z" fill="#505F79"/>
</svg>
