<svg width="24" height="24" viewBox="0 0 24 24" fill="none" xmlns="http://www.w3.org/2000/svg">
<path d="M21.3298 17.8601H20.4098V11.6801C20.4055 9.57845 19.608 7.55589 18.1766 6.01699C16.7452 4.4781 14.7857 3.53634 12.6898 3.38011V2.61011C12.6898 2.41119 12.6108 2.22043 12.4701 2.07978C12.3295 1.93913 12.1387 1.86011 11.9398 1.86011C11.7409 1.86011 11.5501 1.93913 11.4095 2.07978C11.2688 2.22043 11.1898 2.41119 11.1898 2.61011V3.38011C9.09311 3.53406 7.13217 4.47512 5.70034 6.01451C4.26852 7.55391 3.47173 9.57777 3.4698 11.6801V17.8601H2.5498C2.35089 17.8601 2.16013 17.9391 2.01947 18.0798C1.87882 18.2204 1.7998 18.4112 1.7998 18.6101C1.7998 18.809 1.87882 18.9998 2.01947 19.1404C2.16013 19.2811 2.35089 19.3601 2.5498 19.3601H8.4798C8.6341 20.147 9.07134 20.8502 9.70888 21.3366C10.3464 21.8231 11.1401 22.0591 11.9398 22.0001C12.7441 22.0574 13.5412 21.8154 14.178 21.3207C14.8148 20.8261 15.2464 20.1136 15.3898 19.3201H21.3298C21.5287 19.3201 21.7195 19.2411 21.8601 19.1004C22.0008 18.9598 22.0798 18.769 22.0798 18.5701C22.0798 18.3712 22.0008 18.1804 21.8601 18.0398C21.7195 17.8991 21.5287 17.8201 21.3298 17.8201V17.8601ZM11.9398 20.5401C11.5323 20.5801 11.1227 20.4867 10.7728 20.2739C10.423 20.0611 10.1517 19.7404 9.9998 19.3601H13.8498C13.7007 19.7361 13.4344 20.0539 13.0903 20.2665C12.7462 20.4791 12.3427 20.575 11.9398 20.5401ZM4.9998 17.8601V11.6801C4.99979 9.87387 5.71525 8.14116 6.98965 6.86114C8.26404 5.58113 9.99358 4.85804 11.7998 4.85011H12.0798C13.8904 4.85275 15.6261 5.57319 16.9064 6.85349C18.1867 8.13379 18.9072 9.86949 18.9098 11.6801V17.8601H4.9998Z" fill="#505F79"/>
</svg>
