<svg width="24" height="24" viewBox="0 0 24 24" fill="none" xmlns="http://www.w3.org/2000/svg">
<path fill-rule="evenodd" clip-rule="evenodd" d="M13.1556 4.57881C12.8047 4.37356 12.4063 4.26367 11.9998 4.26004C11.5934 4.26367 11.1949 4.37356 10.8441 4.57881C10.4932 4.78405 10.2022 5.07751 9.99984 5.43004L6.89984 10.76L3.84983 16.09C3.64554 16.4438 3.53743 16.8449 3.53626 17.2535C3.53508 17.662 3.64088 18.0637 3.84313 18.4187C4.04539 18.7736 4.33704 19.0694 4.6891 19.2767C5.04115 19.484 5.44133 19.5954 5.84984 19.6H18.1498C18.5583 19.5954 18.9585 19.484 19.3106 19.2767C19.6626 19.0694 19.9543 18.7736 20.1565 18.4187C20.3588 18.0637 20.4646 17.662 20.4634 17.2535C20.4622 16.8449 20.3541 16.4438 20.1498 16.09L17.0698 10.76L13.9998 5.43004C13.7975 5.07751 13.5064 4.78405 13.1556 4.57881ZM10.0757 3.27068C10.6607 2.93341 11.3246 2.75721 11.9998 2.76004C12.6751 2.75721 13.339 2.93341 13.9239 3.27068C14.5089 3.60796 14.994 4.09426 15.3298 4.68004L18.3998 10L21.4798 15.34C21.8171 15.9241 21.9945 16.5867 21.9943 17.2612C21.9941 17.9356 21.8163 18.5981 21.4787 19.182C21.1412 19.7659 20.6558 20.2505 20.0714 20.5873C19.487 20.924 18.8243 21.1008 18.1498 21.1H5.84984C5.1754 21.1008 4.51265 20.924 3.92827 20.5873C3.3439 20.2505 2.85851 19.7659 2.52095 19.182C2.18339 18.5981 2.00557 17.9356 2.00537 17.2612C2.00518 16.5867 2.18261 15.9241 2.51984 15.34L5.59984 10L8.66984 4.68004C9.00568 4.09426 9.49079 3.60796 10.0757 3.27068ZM12.73 9.24001C12.5205 9.07945 12.2639 8.99243 12 8.99243C11.736 8.99243 11.4794 9.07945 11.27 9.24001C11.1696 9.33742 11.093 9.45666 11.0462 9.58847C10.9993 9.72028 10.9835 9.8611 11 10L11.39 14.12C11.4017 14.2889 11.4725 14.4482 11.59 14.57C11.7099 14.6803 11.867 14.7416 12.03 14.7416C12.1929 14.7416 12.35 14.6803 12.47 14.57C12.5889 14.4451 12.6597 14.2822 12.67 14.11L13.05 10.11V9.94001C13.0524 9.80682 13.0249 9.67479 12.9695 9.55363C12.9142 9.43248 12.8323 9.32531 12.73 9.24001ZM11.2602 15.6599C11.0731 15.8569 10.9687 16.1182 10.9687 16.3899C10.9687 16.6616 11.0731 16.9229 11.2602 17.1199C11.4555 17.3063 11.7152 17.4104 11.9852 17.4104C12.2552 17.4104 12.5149 17.3063 12.7102 17.1199C12.8973 16.9229 13.0016 16.6616 13.0016 16.3899C13.0016 16.1182 12.8973 15.8569 12.7102 15.6599C12.6168 15.5615 12.5043 15.4832 12.3797 15.4297C12.255 15.3762 12.1208 15.3486 11.9852 15.3486C11.8495 15.3486 11.7153 15.3762 11.5907 15.4297C11.466 15.4832 11.3536 15.5615 11.2602 15.6599Z" fill="#505F79"/>
</svg>
