<svg width="20" height="22" viewBox="0 0 20 22" fill="none" xmlns="http://www.w3.org/2000/svg">
<path d="M10.8897 21.0001C10.7359 21.0096 10.5817 20.9878 10.4365 20.936C10.2914 20.8842 10.1582 20.8036 10.0451 20.6989C9.93204 20.5942 9.84135 20.4677 9.77853 20.3269C9.71571 20.1862 9.68208 20.0342 9.67967 19.8801V18.2701C7.50967 18.1501 4.75967 17.4001 3.30967 15.8801C1.78088 14.0787 0.959798 11.7825 0.999671 9.4201C0.899671 6.13011 1.99967 3.5901 4.12967 2.2801C5.86319 1.37137 7.80365 0.930203 9.75967 1.0001C11.009 0.997309 12.2554 1.12128 13.4797 1.3701C14.7917 1.59194 16.0038 2.21168 16.9518 3.14539C17.8998 4.0791 18.5379 5.28163 18.7797 6.5901C19.4613 9.49122 18.965 12.5442 17.3997 15.0801C16.6931 16.0044 15.8884 16.8493 14.9997 17.6001L14.5297 18.0301C13.6797 18.8201 12.7397 19.6501 11.5297 20.7201C11.3521 20.8707 11.1317 20.9616 10.8997 20.9801L10.8897 21.0001ZM9.75967 2.5101C8.07359 2.41155 6.39109 2.75632 4.87967 3.5101C2.65967 4.9301 2.40967 7.7901 2.45967 9.3701C2.42449 11.3692 3.10952 13.3143 4.38967 14.8501C5.59967 16.1001 8.30967 16.7801 10.2397 16.7801C10.3635 16.7788 10.4863 16.8022 10.601 16.8489C10.7156 16.8957 10.8198 16.9649 10.9073 17.0524C10.9949 17.14 11.0641 17.2442 11.1108 17.3588C11.1576 17.4735 11.181 17.5963 11.1797 17.7201V19.0001C12.0997 18.2001 12.8497 17.5301 13.5397 16.8901L14.0197 16.4501C14.8144 15.7751 15.5351 15.0175 16.1697 14.1901C17.5022 11.9893 17.912 9.35139 17.3097 6.8501C17.1165 5.83943 16.6162 4.91297 15.8771 4.19711C15.138 3.48124 14.196 3.01085 13.1797 2.8501C12.0541 2.62153 10.9082 2.50762 9.75967 2.5101Z" fill="#202C44"/>
</svg>
