<svg width="24" height="24" viewBox="0 0 24 24" fill="none" xmlns="http://www.w3.org/2000/svg">
<path fill-rule="evenodd" clip-rule="evenodd" d="M16.7224 4.93251C15.3245 3.99852 13.6811 3.5 12 3.5C9.74648 3.50265 7.58601 4.39903 5.99252 5.99252C4.39903 7.586 3.50265 9.74647 3.5 12C3.5 13.6811 3.99852 15.3245 4.93251 16.7223C5.8665 18.1202 7.19402 19.2096 8.7472 19.853C10.3004 20.4963 12.0094 20.6646 13.6583 20.3367C15.3071 20.0087 16.8217 19.1992 18.0104 18.0104C19.1992 16.8217 20.0087 15.3071 20.3367 13.6583C20.6647 12.0094 20.4963 10.3004 19.853 8.74719C19.2096 7.19402 18.1202 5.8665 16.7224 4.93251ZM6.4443 3.6853C8.08879 2.58649 10.0222 2 12 2C14.6522 2 17.1957 3.05357 19.0711 4.92893C20.9464 6.8043 22 9.34784 22 12C22 13.9778 21.4135 15.9112 20.3147 17.5557C19.2159 19.2002 17.6541 20.4819 15.8268 21.2388C13.9996 21.9957 11.9889 22.1937 10.0491 21.8079C8.10929 21.422 6.32746 20.4696 4.92894 19.0711C3.53041 17.6725 2.578 15.8907 2.19215 13.9509C1.8063 12.0111 2.00433 10.0004 2.76121 8.17317C3.51809 6.3459 4.79981 4.78412 6.4443 3.6853ZM15.5298 9.53009L13.0598 12.0001L15.5298 14.4701C15.6703 14.6107 15.7492 14.8013 15.7492 15.0001C15.7492 15.1988 15.6703 15.3895 15.5298 15.5301C15.3892 15.6705 15.1986 15.7494 14.9998 15.7494C14.8011 15.7494 14.6105 15.6705 14.4698 15.5301L11.9998 13.0601L9.52983 15.5301C9.3892 15.6705 9.19858 15.7494 8.99983 15.7494C8.80108 15.7494 8.61045 15.6705 8.46983 15.5301C8.32938 15.3895 8.25049 15.1988 8.25049 15.0001C8.25049 14.8013 8.32938 14.6107 8.46983 14.4701L10.9398 12.0001L8.46983 9.53009C8.33735 9.38792 8.26523 9.19987 8.26865 9.00557C8.27208 8.81127 8.35079 8.62588 8.48821 8.48847C8.62562 8.35106 8.811 8.27234 9.00531 8.26892C9.19961 8.26549 9.38765 8.33761 9.52983 8.47009L11.9998 10.9401L14.4698 8.47009C14.612 8.33761 14.8 8.26549 14.9944 8.26892C15.1887 8.27234 15.374 8.35106 15.5114 8.48847C15.6489 8.62588 15.7276 8.81127 15.731 9.00557C15.7344 9.19987 15.6623 9.38792 15.5298 9.53009Z" fill="#505F79"/>
</svg>
