<svg width="18" height="23" viewBox="0 0 18 23" fill="none" xmlns="http://www.w3.org/2000/svg">
<path fill-rule="evenodd" clip-rule="evenodd" d="M11.0999 11.0002V3.80019C11.0999 2.6404 10.1597 1.7002 8.99988 1.7002C7.84008 1.7002 6.89988 2.6404 6.89988 3.8002V11.0002C6.89988 12.16 7.84008 13.1002 8.99988 13.1002C10.1597 13.1002 11.0999 12.16 11.0999 11.0002ZM8.99988 0.200195C7.01165 0.200195 5.39988 1.81197 5.39988 3.8002V11.0002C5.39988 12.9884 7.01165 14.6002 8.99988 14.6002C10.9881 14.6002 12.5999 12.9884 12.5999 11.0002V3.80019C12.5999 1.81197 10.9881 0.200195 8.99988 0.200195ZM9.74937 19.3666C9.74971 19.3777 9.74988 19.3888 9.74988 19.4V21.8C9.74988 22.2971 9.41409 22.7 8.99988 22.7C8.58566 22.7 8.24988 22.2971 8.24988 21.8V19.4C8.24988 19.3888 8.25005 19.3777 8.25038 19.3666C3.96235 18.9874 0.599976 15.3862 0.599976 10.9996V9.34961C0.599976 8.9354 0.935762 8.59961 1.34998 8.59961C1.76419 8.59961 2.09998 8.9354 2.09998 9.34961V10.9996C2.09998 14.8104 5.18921 17.8996 8.99998 17.8996C12.8107 17.8996 15.9 14.8104 15.9 10.9996V9.34961C15.9 8.9354 16.2358 8.59961 16.65 8.59961C17.0642 8.59961 17.4 8.9354 17.4 9.34961V10.9996C17.4 15.3862 14.0375 18.9875 9.74937 19.3666Z" fill="#505F79"/>
</svg>
