<svg width="20" height="21" viewBox="0 0 20 21" fill="none" xmlns="http://www.w3.org/2000/svg">
<path d="M18.6592 9.00592C18.9965 9.59088 19.1727 10.2548 19.1698 10.93C19.1727 11.6052 18.9965 12.2691 18.6592 12.8541C18.3219 13.4391 17.8356 13.9242 17.2498 14.26L6.58984 20.41C6.00576 20.7472 5.34316 20.9247 4.66872 20.9245C3.99428 20.9243 3.33179 20.7465 2.7479 20.4089C2.16402 20.0713 1.67934 19.5859 1.34263 19.0016C1.00592 18.4172 0.829053 17.7544 0.829837 17.08L0.829837 4.78001C0.829053 4.10557 1.00592 3.44282 1.34263 2.85845C1.67934 2.27407 2.16402 1.78868 2.7479 1.45113C3.33179 1.11357 3.99428 0.935743 4.66872 0.935547C5.34316 0.935352 6.00576 1.11279 6.58984 1.45001L17.2498 7.60001C17.8356 7.93585 18.3219 8.42096 18.6592 9.00592Z" fill="#505F79"/>
</svg>
